<svg xmlns="http://www.w3.org/2000/svg" width="1995.606" height="1975.428" viewBox="0 0 1995.606 1975.428">
  <g id="Group_15" data-name="Group 15" transform="translate(-709.619 -1769.417)">
    <g id="Payment_Processing" data-name="Payment Processing" transform="translate(200 1667)">
      <g id="background">
        <path id="Path_140" data-name="Path 140" d="M1047.51,29.417c750,0,1571.868,758.98,1309.99,1314.126-115.487,244.818-447.43,162.306-810.613,279.14C1086.77,1770.7,821.215,1955.193,628.9,1780.009,284.863,1466.621,297.51,29.417,1047.51,29.417Z" transform="translate(98 73)" fill="#687ded"/>
      </g>
      <g id="shadow">
        <g id="Group_8" data-name="Group 8">
          <g id="Group_5" data-name="Group 5">
            <path id="Path_4" data-name="Path 4" d="M1312.6,373.2c-5.7-3.9-13.7-12.4-21.1-8.7-7.3,3.6-5.3,11-.7,15.7,3.9,4,13.5,11,19.5,9.5C1318.1,387.6,1318.9,377.4,1312.6,373.2Z" fill="#ebf2ff"/>
            <path id="Path_5" data-name="Path 5" d="M1371.5,358.2c-8.9,12.8,4.9,28.2,13.7,13.6C1391.7,361.2,1380.5,345.3,1371.5,358.2Z" fill="#ebf2ff"/>
            <path id="Path_6" data-name="Path 6" d="M1351.8,410.1c-5.7.7-12.4,1.1-13.7,7.9-1.1,5.8,3,10.1,8.7,10.7C1362.1,430.5,1364.7,408.4,1351.8,410.1Z" fill="#ebf2ff"/>
            <path id="Path_7" data-name="Path 7" d="M1257.7,360.6c2.6-.3,4.5-3.8,6.3-4,1.2-.1,6.5,5.3,8.5,5.2,4.4-.2,4.9-6.1,6.3-10,4.1-11.7-6.5-19.9-3.5-30.1,15.9-9.6,56.5-21.8,58.1-49,1.9,1.2,7,20.4,19.6,22.7,9.7,1.7,21.6,4.8,21.7-8.2.1-14.8-35.9-44.9-44.8-25.6-17.9-9.5-35.3-2.3-46.4,2.3-13.4,5.7-24.4,16.1-33,28.3-9.5,13.4-12.8,30.9-11.6,47.1C1239.5,346.7,1244.3,374.5,1257.7,360.6Z" fill="#ebf2ff"/>
            <path id="Path_8" data-name="Path 8" d="M1297.9,558.4q94.65-16.5,189.2-33c9-1.6,35.5-.9,40.3-8.9,5-8.3-7.5-15.4-15-16.9-29.6-5.9-60.1-11.6-90.4-9.5-29.7,2-50.1,9.5-83.4,21.6-39.6.8-79.3-16-110-8.8-60.4,14.2-122.4,74.9-127.9,78.3C1060,606.6,1266,564,1297.9,558.4Z" fill="#ebf2ff"/>
            <path id="Path_9" data-name="Path 9" d="M851.5,976.4c27.8,17,34.7-37.3,11.5-49.4C832.3,910.9,831,963.9,851.5,976.4Z" fill="#ebf2ff"/>
            <path id="Path_10" data-name="Path 10" d="M1885.005,853.348c13.5,12.746,53.222-16.615,74.531-51.373,12.309-20.078,15.448-48.862,11.094-54.176-2.116-2.6-13.852-29.277-20.53-31.195-5.8-1.667-20.572,18.853-23.1,19.4-3.668.787-11.7,7.036-13.764,11.8C1908.237,759.5,1874.605,843.548,1885.005,853.348Z" fill="#fff"/>
            <path id="Path_11" data-name="Path 11" d="M1398.6,1139c-8-13.7-38-2.7-49.8-.8q-32.1,5.25-64,11c-11.2,2-22.3,4.1-33.4,6.1-8.3,1.5-20.4.2-26.8,5.9-6.8,6-2.6,25-1.1,38.1,3.8,33.9,24.7,13.1,38.3,8.2,19.1-6.9,38.7-12.1,58.4-17.1C1338.9,1185.6,1419.7,1175.2,1398.6,1139Z" fill="#ebf2ff"/>
            <path id="Path_12" data-name="Path 12" d="M1722.3,1076.1c-46.6,6.5-200.1,30.4-188.7,41.1,8.4,7.9,33.3,19.5,46.3,32,10.8-2.1,102.2-23.8,125.8-28.1,15.3-2.8,40.4-3.4,46.8-20.9C1759.9,1080.3,1736.8,1074,1722.3,1076.1Z" fill="#ebf2ff"/>
            <path id="Path_13" data-name="Path 13" d="M1420.3,1483.5c18.7-28,26.2-54.6,27.5-88.5.7-17.3-5.5-44.8-8.9-61.8-3.2-16.1-8.4-18.9-18.6-5.5-18.8,24.7-27.8,55.2-31.2,86C1385,1450.8,1409,1500.3,1420.3,1483.5Z" fill="#ebf2ff"/>
            <path id="Path_14" data-name="Path 14" d="M1897,1225.8c-6.4,34.7-6.5,70.9,5.2,104.2,5.8,16.6,45.9,71.1,59.4,74.6,12.8,3.3,5.1-44.7,4.9-55.3-.5-21.5-.9-43.9-9.2-64.1-7.1-17.4-18.7-32.6-31-46.7C1922.2,1233.7,1899.7,1210.9,1897,1225.8Z" fill="#ebf2ff"/>
            <path id="Path_15" data-name="Path 15" d="M1393,1489.6c-6.8-11.7-32,5.7-40.6,9a383.513,383.513,0,0,1-51.6,15.6c-6.2,1.4-36.1,6-21,18.9,8.7,7.5,36.5-4,46.4-6.8-9,4.9-18.2,9.4-27.5,13.5-6.3,2.7-16.2,4.6-15.9,13.2.8,19.1,35.3-2.3,42.4-5.9,12.3-6.2,35.8-15.3,41.9-28.1,3.9-8-6.7-2,3.7-8.4,4.2-2.6,9.8-4.1,14.2-6.3C1390.6,1501.3,1397.3,1496.9,1393,1489.6Z" fill="#ebf2ff"/>
            <path id="Path_16" data-name="Path 16" d="M1151.4,1841.7c25.9,16.9,56.7,22.6,86.6,27.9,8.7,1.6,29.2,9.8,37,4.5,9.7-6.6,1.5-15.3-6.3-17,12.1-12.8-12.1-16-18.3-17.3-6.5-1.3-14.8-6.7-21.2-5.9-6.8.8-11.5,8.7-6.2,14.7-18.6-3.7-37.3-8.6-54.1-17.7-5.7-3.1-12.3-9.7-18.4-4C1145.9,1831.1,1146.4,1838.5,1151.4,1841.7Z" fill="#ebf2ff"/>
            <path id="Path_17" data-name="Path 17" d="M1843.8,1719.9a198.075,198.075,0,0,0,66.8-31.9c6.9-5,22.4-14.3,24.6-23,2.4-9.7-8.2-13.2-15-8.8-9.9,6.4-17.9,16.1-27.9,22.7a174.874,174.874,0,0,1-31.8,16.6c-7.2,2.9-24.4,4.5-27.3,12.5C1830.7,1714.5,1836.9,1721.7,1843.8,1719.9Z" fill="#ebf2ff"/>
            <path id="Path_18" data-name="Path 18" d="M1928.2,1678.1c-8.6,5.5-27.9,13-32.5,22-4.5,8.8,4.4,15,12.1,12.2,5.8-2.1,11.6-7.4,16.8-10.7,4.3-2.7,12.2-5.8,15-10.1C1944.5,1684,1936.9,1672.5,1928.2,1678.1Z" fill="#ebf2ff"/>
            <path id="Path_19" data-name="Path 19" d="M1938.4,1762.6c-11.6,3.5-23.3,6.9-34.9,10.4-10.7,3.2-26.9,5-36.3,11-7.3,4.7-3.3,8.4-2.3,14.6,2.1,12.6-.2,27,.5,39.9.6,11.8.4,25.6,3.4,37.1,2.8,10.7,9.3,9.8,18.4,5.7,22.7-10.1,45.2-20.6,68.3-30a1460.6,1460.6,0,0,1,144.8-50.7c11.4-3.3,23-6.2,34.3-9.6,10.8-3.2,13.6-9.2,8.6-19.7-6.9-14.4-29.5-18.7-49.2-19.2-26.9-.6-102.4,13.1-115.3,10.4C1963.3,1759.3,1953.8,1758.1,1938.4,1762.6Z" fill="#ebf2ff"/>
            <path id="Path_20" data-name="Path 20" d="M1250.7,1917.3c-8-3.3-8.1-15.9-17-18.6-10.6-3.2-23.6-1.9-34.5-2.3-12.9-.4-25.8-.9-38.7-1.3-6.5-.2-13.1-2.1-19.5-.8-6,1.2-25.5,56.8-29.5,69.9-2.4,7.7-9.6,21.5-2.8,28.5,6.2,6.4,90.3,2.7,117.2,2.8l159.5.6c15.3.1,20.2-6.9,14.7-20.6C1382.9,1933.4,1261.6,1921.8,1250.7,1917.3Z" fill="#ebf2ff"/>
            <path id="Path_21" data-name="Path 21" d="M792,1991.2c-5.8-5.4-14-7.7-21.1-5.4-6,1.9-12.9,11.7-4.6,17.6,3.4,2.5,5.6-.1,8.9-.2,4.9-.1,7.8,4.4,12.2,4.8C795.1,2008.7,798.1,1996.8,792,1991.2Z" fill="#ebf2ff"/>
            <path id="Path_22" data-name="Path 22" d="M1006.4,1993.4q-62.25,1.05-124.4-.5c-20.1-.5-41-3.6-61.1-2.2-5,.3-9.6,1.8-8.9,9.7.8,9,7.8,8.2,13.3,8.5-5.7.5-15.5,2.5-15,12.2.6,11.6,8.5,6.9,13.8,5.9,5.7-1,13.2,5.3,17.4-1.7,5.5-9.2-3.8-15-9.7-16.1,37.8,1.6,75.7,2.5,113.5,2.7,18.9.1,37.9.6,56.8-.3,4.7-.2,9.7,0,11-7C1014.1,1999,1011.1,1993.3,1006.4,1993.4Z" fill="#ebf2ff"/>
            <path id="Path_23" data-name="Path 23" d="M1103.8,1992.7c-22.6-1.7-45.8-5.2-68.5-5-6.3,0-18.5-.7-21.3,6.7-1.8,4.8,1.2,10.1,5.7,12,6.4,2.7,17.1-1.1,24.1-.7,11.5.7,23,2.1,34.5,3,7.7.6,21.8,4.8,29,1.3C1116,2005.9,1113.4,1993.4,1103.8,1992.7Z" fill="#ebf2ff"/>
            <path id="Path_24" data-name="Path 24" d="M1096,2042.2c-19.5-1.7-39.2-4.4-58.7-4.7-6-.1-14.1-1.1-17.3,5.3a9.339,9.339,0,0,0,2.9,11.8c4.7,3.3,18.4.9,24,1.3,9.8.6,19.5,1.7,29.3,2.5,6.8.6,18.8,4.2,24.8.1C1108.5,2053.5,1104.5,2042.9,1096,2042.2Z" fill="#ebf2ff"/>
            <path id="Path_25" data-name="Path 25" d="M1142.6,2050.7c-6.9-4.2-21.5-4.1-24,5.6-3,11.5,7.9,9.7,13.8,9.7,1.6,0,2.5,1.6,4.4,1.4C1145.1,2066.5,1152.1,2056.5,1142.6,2050.7Z" fill="#ebf2ff"/>
            <path id="Path_26" data-name="Path 26" d="M1894.1,1997.4c-142.6-5-284.8-6.5-427.4-2.9-17.3.4-35.5-.6-52.7,1.4-8,.9-16.8,8.3-8.4,16.2,4,3.8,11.8,1.8,16.8,1.6,9.3-.2,18.5-.5,27.8-.7q27.75-.75,55.5-1.2c70.3-1.4,140.7-2.1,211-1.2,40.7.5,81.4,1.6,122.1,3,9.2.3,18.5.6,27.7.9,7.7.3,23,3.6,30.4.7C1905.5,2011.6,1904.2,1997.7,1894.1,1997.4Z" fill="#ebf2ff"/>
            <path id="Path_27" data-name="Path 27" d="M1572.3,2047.4c-12.2-2.6-23.1,3.1-35.1,3.4-13,.4-25-6.6-37.4-9.6-8.9-2.1-28.1-4.4-33.9,5.3-5.5,9.2,5.3,13.7,12.4,12.6,12.2-2,19.7-.8,31.6,3.8,11.7,4.5,22.9,7.5,35.6,5.2,5.9-1.1,11.6-3.5,17.6-3.7,4.6-.2,8.6,1.6,12.4-1.7C1580.6,2058.1,1579.6,2049,1572.3,2047.4Z" fill="#ebf2ff"/>
            <path id="Path_28" data-name="Path 28" d="M1611.5,2042.8c-14.6-9.9-31.3,9.1-11.8,15.2C1609.4,2061.1,1624.3,2051.6,1611.5,2042.8Z" fill="#ebf2ff"/>
            <path id="Path_29" data-name="Path 29" d="M1861.2,2038.4c-7.5-3.5-26.5-8.7-33-.7-3.8,4.6-2,11.5,3.1,14.3,3.4,1.9,6.3,0,9.8.1,5.1.1,9.6,2.7,14.5,2.8C1864.2,2055.2,1870.6,2042.8,1861.2,2038.4Z" fill="#ebf2ff"/>
            <path id="Path_30" data-name="Path 30" d="M2003.7,2010.2c0-10.1-10.5-8.7-17.2-8.3a145.906,145.906,0,0,1-29.5-1.4c-8.3-1.2-36.5-8.6-34.6,7.9.9,7.7,7.4,7.3,13.3,7.5,8.1.3,15.5,1.7,23.5,2.9C1968.3,2020.2,2003.7,2025.7,2003.7,2010.2Z" fill="#ebf2ff"/>
            <path id="Path_31" data-name="Path 31" d="M2067.2,2057.5a174.914,174.914,0,0,0-67.6-3c-6.4,1-15.8.9-16.8,9.1-.6,5.4,3.5,9.5,8.5,10.4,8.6,1.5,20.1-3.1,29-3.4,12.5-.4,24.6,1,36.9,3.2,5.8,1,11.7,2.9,15.2-3.3C2075.2,2065.3,2073,2058.9,2067.2,2057.5Z" fill="#ebf2ff"/>
            <path id="Path_32" data-name="Path 32" d="M2226.2,2004.5c-39-5.1-78.1,2.2-117.2-.3-18-1.2-35.6-6.4-53.7-6.6-6.4-.1-16.5-1.1-19.2,6.4-2.5,7.1,2.9,10.8,9,11.9,8.4,1.4,17.6-.4,26.3,1,8.2,1.3,16.2,3.2,24.4,4.1,18.6,2.2,37.3,1.9,55.9,1.1,19.5-.8,38.9-2.1,58.4-1,6.4.4,17.1,3.9,22.2-1.2C2238.5,2014,2233.7,2005.5,2226.2,2004.5Z" fill="#ebf2ff"/>
            <path id="Path_33" data-name="Path 33" d="M2341.7,2005.8c-20.8-4.2-42.4-7.1-63.6-6.9-6.1.1-12-.3-13.8,6.7-1.4,5.6,2.1,9.6,7.1,11.1,8.8,2.5,21.7.7,30.9,1.5,10.7,1,21.3,3.4,31.9,4.5,5.7.6,10.6.9,13.1-5.4C2349.4,2012.3,2347.3,2006.9,2341.7,2005.8Z" fill="#ebf2ff"/>
            <path id="Path_34" data-name="Path 34" d="M2223,2059.9c-17.4-1.8-34.8-3.6-52.1-5.4-6-.6-13.7-2.3-16.5,4.8-2.8,6.9,2.5,10.8,8.3,12.4,15.2,4.1,33.7,3.5,49.4,5.1,6.5.7,16,3.5,19.3-4.5C2233.7,2066.3,2229.1,2060.6,2223,2059.9Z" fill="#ebf2ff"/>
            <path id="Path_35" data-name="Path 35" d="M2376.2,2032.5c-2.2-8.1-13.6-9.3-17.7-2.2C2349.7,2045.5,2380.8,2049.6,2376.2,2032.5Z" fill="#ebf2ff"/>
          </g>
          <g id="Group_6" data-name="Group 6">
            <path id="Path_36" data-name="Path 36" d="M934.2,1184.8c-21.1,0-18.1-27.1-.6-31.1,4.5-1,9.2-1.5,13.7-2.2,21.1-3.4,42.1-6.8,63.2-10.3q113.85-18.6,227.8-37.1,142.8-23.25,285.5-46.4,124.95-20.4,250-40.7c40.1-6.5,80.9-16.2,121.4-19.7,20.1-1.8,27.3,24.5,6.5,30.4-2.3.6-4.8.8-7.2,1.2-17.3,2.8-34.7,5.6-52,8.5l-214.2,34.8q-141.75,23.1-283.4,46.1-130.2,21.15-260.5,42.4c-47.2,7.7-94.3,15.8-141.6,23C940,1184,937.1,1184.8,934.2,1184.8Z" fill="#ebf2ff"/>
          </g>
          <g id="Group_7" data-name="Group 7">
            <path id="Path_37" data-name="Path 37" d="M846.1,683.3c-21.1,0-18.1-27.1-.6-31.1,4.5-1,9.2-1.5,13.7-2.2,21.1-3.4,42.1-6.8,63.2-10.3q113.85-18.6,227.8-37.1,142.8-23.25,285.5-46.4,124.95-20.4,250-40.7c40.1-6.5,80.9-16.2,121.4-19.7,20.1-1.8,27.3,24.5,6.5,30.4-2.3.6-4.8.8-7.2,1.2-17.3,2.8-34.7,5.6-52,8.5l-214.2,34.8q-141.75,23.1-283.4,46.1-130.2,21.15-260.5,42.4c-47.2,7.7-94.3,15.8-141.6,23C851.9,682.5,849,683.3,846.1,683.3Z" fill="#ebf2ff"/>
          </g>
        </g>
      </g>
      <g id="color_shadow">
        <g id="Group_9" data-name="Group 9">
          <path id="Path_38" data-name="Path 38" d="M1137.6,851.5l-136.1,21.9a11.886,11.886,0,0,1-13.6-9.9l-13.4-83.3a11.886,11.886,0,0,1,9.9-13.6l136.1-21.9a11.886,11.886,0,0,1,13.6,9.9l13.4,83.3A11.886,11.886,0,0,1,1137.6,851.5Z" fill="#ffdfab"/>
          <path id="Path_39" data-name="Path 39" d="M1566.9,962.1c0-32.2,28-58.2,62.5-58.2s62.5,26.1,62.5,58.2c0,32.2-28,58.2-62.5,58.2-24.8,0-46.2-13.4-56.3-32.9" fill="#ffdfab"/>
        </g>
      </g>
      <g id="outline">
        <g id="Group_10" data-name="Group 10">
          <path id="Path_142" data-name="Path 142" d="M1334.391,272.188l37.173,27.839,11.522,99.639-11.522,34.6,6.652,58.871-49.436,19.621c-12.359,4.905-59.044-13.677-59.044-13.677l-3.1-90.676,3.1-11.611-20.511-8.521V360.393h-8.7l8.7-70.263Z" fill="#fff"/>
          <path id="Path_100" data-name="Path 100" d="M1974.1,1711.1c.6-128.3,1.2-256.9-10-384.8-1.7-19.4-3.9-39.4-13.3-56.5-8.1-14.6-20.9-26-33.5-37l-168.6-147.6c-56.2-49.2-214.524,30.211-214.524,30.211L1713.947,1269.8l107.635,113.238s-9.549,58.859-8.259,150.313-.471,211.092-.471,211.092" fill="#fff" stroke="#003188" stroke-linecap="round" stroke-linejoin="round" stroke-miterlimit="10" stroke-width="6"/>
          <path id="Path_54" data-name="Path 54" d="M1272.1,322.4a104.8,104.8,0,0,0,46.8-24.3c6.9-6.3,13.2-13.9,15.4-22.9,2.2-9.1-.4-19.8-8.3-25-4.4-2.9-9.8-3.7-15-4-17.6-1-35.6,3.4-50.1,13.4s-25.3,25.7-28.2,43c-3.2,19,2.8,38.2,9,56.4" fill="#fff" stroke="#003188" stroke-linecap="round" stroke-linejoin="round" stroke-miterlimit="10" stroke-width="6"/>
          <path id="Path_61" data-name="Path 61" d="M1335.7,279.2a50.37,50.37,0,0,0,29.8,20.8c3.9.9,8.6,1.2,11.4-1.7a11.017,11.017,0,0,0,2.4-5.4c3.3-15.9-6.3-32.9-20.9-40.1-7.9-3.9-18.5-4.8-24.9,1.2" fill="#fff" stroke="#003188" stroke-linecap="round" stroke-linejoin="round" stroke-miterlimit="10" stroke-width="6"/>
          <path id="Path_40" data-name="Path 40" d="M874.808,1009.678,820.6,674.9a38.772,38.772,0,0,1,32.1-44.4l962.3-155a38.772,38.772,0,0,1,44.4,32.1l53.844,338.533" fill="#fff" stroke="#003188" stroke-linecap="round" stroke-linejoin="round" stroke-miterlimit="10" stroke-width="6"/>
          <path id="Path_41" data-name="Path 41" d="M1913.2,847l25.2,156.4a38.772,38.772,0,0,1-32.1,44.4L944,1202.8a38.772,38.772,0,0,1-44.4-32.1l-26.5-164.3" fill="#fff" stroke="#003188" stroke-linecap="round" stroke-linejoin="round" stroke-miterlimit="10" stroke-width="6"/>
          <path id="Path_42" data-name="Path 42" d="M1233.8,891.3" fill="none" stroke="#003188" stroke-linecap="round" stroke-linejoin="round" stroke-miterlimit="10" stroke-width="6"/>
          <path id="Path_43" data-name="Path 43" d="M1393.4,865.6" fill="none" stroke="#003188" stroke-linecap="round" stroke-linejoin="round" stroke-miterlimit="10" stroke-width="6"/>
          <path id="Path_44" data-name="Path 44" d="M1017.7,945.9c4.1-6.4,8.4-12.9,14.6-17.3s14.8-6.2,21.4-2.5,9.1,14.1,3.5,19.2a41.7,41.7,0,0,1,29.6-20.9c3.8-.6,7.9-.6,11.3,1.3s5.7,6.1,4.3,9.7c4.8-6.9,10.5-13.8,18.5-16.4s18.5,1,20.4,9.2c8.7-12.8,27.7-17.4,41.3-10" fill="none" stroke="#003188" stroke-linecap="round" stroke-linejoin="round" stroke-miterlimit="10" stroke-width="6"/>
          <path id="Path_45" data-name="Path 45" d="M1250.6,902c3.7-5.3,7.6-10.7,13-14.1,5.4-3.5,12.9-4.7,18.2-1.1,5.4,3.5,6.8,12.6,1.7,16.4-3.2-1.7-1.8-6.5.4-9.4a35.368,35.368,0,0,1,25.4-13.3c3.6-.2,7.5.3,10.2,2.7s3.4,7.2.6,9.5a34.916,34.916,0,0,1,16.8-17.3c4-1.9,8.7-3,12.8-1.3s6.8,7,4.4,10.8a19.538,19.538,0,0,1,32.4-9.1,26.231,26.231,0,0,1,29.5-7.7" fill="none" stroke="#003188" stroke-linecap="round" stroke-linejoin="round" stroke-miterlimit="10" stroke-width="6"/>
          <path id="Path_46" data-name="Path 46" d="M1472.6,859.4a92.727,92.727,0,0,1,22.8-19.1c4.6-2.7,9.6-4.9,14.9-4.9s10.9,2.7,13,7.5c2.1,4.9-.6,11.6-5.8,12.5.8-9.7,12.1-14.6,21.7-16.4,3.6-.7,7.4-1.2,10.7.3s5.5,5.8,3.6,8.9a47.2,47.2,0,0,1,25.1-15c2.5-.6,5.5-.8,7.2,1.1,1.1,1.2,1.4,2.9,2.6,3.9,2.3,1.9,5.7-.1,8-1.9,3.7-3,7.8-5.8,12.4-6.9,4.7-1.1,10.1.1,12.9,3.9" fill="none" stroke="#003188" stroke-linecap="round" stroke-linejoin="round" stroke-miterlimit="10" stroke-width="6"/>
          <path id="Path_47" data-name="Path 47" d="M1682.2,822a38.986,38.986,0,0,1,29.5-17.6c5.2-.4,11.1.5,14.5,4.6s2,11.7-3.2,12.7c-2-1-1-4.1.4-5.9a45.193,45.193,0,0,1,16.5-12.9c4-1.8,8.7-3.1,12.7-1.2s5.8,8,2.4,10.7c2.2-6.2,8.4-10,14.2-13,3.7-2,8-3.9,12-2.8,4.1,1.1,6.6,7.1,3.3,9.7,5.5-10.6,20.9-14.5,30.9-7.9" fill="none" stroke="#003188" stroke-linecap="round" stroke-linejoin="round" stroke-miterlimit="10" stroke-width="6"/>
          <path id="Path_48" data-name="Path 48" d="M1018.7,1061.8c2.8-5,5.8-10.2,10.6-13.5,4.8-3.2,11.9-3.8,16,.3s1.9,12.9-3.9,13.1a38.736,38.736,0,0,1,25.6-18.8c3.9-.8,8.5-.8,11.5,1.9,2.9,2.8,2.2,8.9-1.8,9.6a48.846,48.846,0,0,1,23.7-17.8c4.3-1.5,9.1-2.4,13.3-.8,4.3,1.6,7.7,6.2,6.5,10.6,6.9-14.8,28.8-19.9,41.5-9.6a47.612,47.612,0,0,1,27.9-12c4.7-.4,11.3,3.3,8.5,7.1a64.9,64.9,0,0,1,28.6-11.1c4.4-.6,10.9,2.7,8.3,6.3a24.783,24.783,0,0,1,25.2-5" fill="none" stroke="#003188" stroke-linecap="round" stroke-linejoin="round" stroke-miterlimit="10" stroke-width="6"/>
          <path id="Path_49" data-name="Path 49" d="M1021,1113.9a63.089,63.089,0,0,1,34.3-21.1c2.6-.6,5.4-1,7.7.4,3.5,2,3.7,7.3,1.5,10.7s-6,5.3-9.7,7a60.878,60.878,0,0,1,21.5-17.5c4.3-2.1,9.7-3.7,13.8-1,4,2.7,2.8,10.9-2,10.4a52.354,52.354,0,0,1,28.5-17.1c4.5-1,9.9-1.2,13.2,2.1,3.3,3.2,1.6,10.6-3,10.3a57.493,57.493,0,0,1,27.8-19.2c4-1.2,8.5-2,12.2,0s5.5,7.7,2.3,10.5a53.736,53.736,0,0,1,27.1-14.3c3.5-.7,7.6-.9,10.3,1.4s2.3,7.9-1.3,8.5a45.714,45.714,0,0,1,19.2-14.7c3.1-1.3,6.8-2.2,9.7-.5s3.4,6.9.3,8c7.5-9.7,21.6-13.7,33.1-9.2" fill="none" stroke="#003188" stroke-linecap="round" stroke-linejoin="round" stroke-miterlimit="10" stroke-width="6"/>
          <path id="Path_50" data-name="Path 50" d="M1524.9,596.9c-8,3.5-4.5,17.4,3.9,19.9s17.2-2.5,23.7-8.3a86.111,86.111,0,0,0,18-22.3c-7.9-2.2-14.6,8.9-10.7,16.1s14,9,21.7,6.2,13.5-9.1,18.9-15.3c3.1-3.6,6.4-8.1,5-12.6-4.8,4.9-1.7,14.1,4.6,16.8,6.3,2.6,13.8-.1,18.7-4.9s7.7-11.2,10.5-17.5c-4.3,9.3,9,18.7,18.7,15.3,9.7-3.5,14.9-13.6,19.3-22.8-2.1,9.3,10.3,16.4,19.3,13.2s14.4-12,19.2-20.3c-2.6,4.1.8,10,5.4,11.4,4.6,1.5,9.7-.2,14-2.4a56.152,56.152,0,0,0,21.8-19.8c-4.4,7,4.1,16.2,12.3,15.8s14.9-6.5,20.7-12.3" fill="none" stroke="#003188" stroke-linecap="round" stroke-linejoin="round" stroke-miterlimit="10" stroke-width="6"/>
          <path id="Path_51" data-name="Path 51" d="M1267.6,355.6c-6.8-1.1-14,2.6-17.6,8.5s-3.8,13.5-1.2,19.9a20.145,20.145,0,0,0,4.1,6.3c4.4,4.3,10.8,5.5,16.9,6.6" fill="none" stroke="#003188" stroke-linecap="round" stroke-linejoin="round" stroke-miterlimit="10" stroke-width="6"/>
          <path id="Path_52" data-name="Path 52" d="M1258.6,374.3a19.765,19.765,0,0,1,11.5,4" fill="none" stroke="#003188" stroke-linecap="round" stroke-linejoin="round" stroke-miterlimit="10" stroke-width="6"/>
          <path id="Path_53" data-name="Path 53" d="M1265.9,346.7c1.4,4.1,3,8.1,4.8,12.1.7,1.7,1.6,3.5,3.1,4.4a1.68,1.68,0,0,0,1.5.3,2.757,2.757,0,0,0,.9-.7,7.537,7.537,0,0,0,1.2-4.1,78.591,78.591,0,0,0-7.9-39.9" fill="none" stroke="#003188" stroke-linecap="round" stroke-linejoin="round" stroke-miterlimit="10" stroke-width="6"/>
          <path id="Path_55" data-name="Path 55" d="M1374.5,303.6q6.15,36.15,9.1,72.8c1.1,13.4,1.8,27.2-2,40-3.9,12.9-13.2,24.9-26.2,28.3a44.079,44.079,0,0,1-15.8.7,86.38,86.38,0,0,1-43.2-17.1" fill="#fff" stroke="#003188" stroke-linecap="round" stroke-linejoin="round" stroke-miterlimit="10" stroke-width="6"/>
          <path id="Path_56" data-name="Path 56" d="M1301.3,335.5a43.514,43.514,0,0,1,27.4-7.3" fill="none" stroke="#003188" stroke-linecap="round" stroke-linejoin="round" stroke-miterlimit="10" stroke-width="6"/>
          <path id="Path_57" data-name="Path 57" d="M1316.1,349a14.811,14.811,0,0,0,.9,7.2,17.878,17.878,0,0,0-.7-6.9" fill="none" stroke="#003188" stroke-linecap="round" stroke-linejoin="round" stroke-miterlimit="10" stroke-width="6"/>
          <path id="Path_58" data-name="Path 58" d="M1360.5,339.1a19.009,19.009,0,0,0,1.3,6.7,9.319,9.319,0,0,0-1.3-6.7" fill="none" stroke="#003188" stroke-linecap="round" stroke-linejoin="round" stroke-miterlimit="10" stroke-width="6"/>
          <path id="Path_59" data-name="Path 59" d="M1364.9,317.1a58.849,58.849,0,0,0-9.8,3.9c-2.1,1.1-4.3,2.3-5.6,4.4a11.6,11.6,0,0,0-1.3,6.1c-.2,9.5,2.8,18.8,6.7,27.4,1.1,2.5,2.3,5,2,7.7-.5,4.6-5.1,7.4-9.2,9.6" fill="none" stroke="#003188" stroke-linecap="round" stroke-linejoin="round" stroke-miterlimit="10" stroke-width="6"/>
          <path id="Path_60" data-name="Path 60" d="M1328.2,393.2a24.473,24.473,0,0,0,23.2,3.4" fill="none" stroke="#003188" stroke-linecap="round" stroke-linejoin="round" stroke-miterlimit="10" stroke-width="6"/>
          <path id="Path_62" data-name="Path 62" d="M1322.5,267.9c-1.3,4.9-4.4,9.2-7.7,13a81.74,81.74,0,0,1-41,24.7" fill="none" stroke="#003188" stroke-linecap="round" stroke-linejoin="round" stroke-miterlimit="10" stroke-width="6"/>
          <path id="Path_63" data-name="Path 63" d="M1284.8,285.5a42.892,42.892,0,0,1-19,9.6" fill="none" stroke="#003188" stroke-linecap="round" stroke-linejoin="round" stroke-miterlimit="10" stroke-width="6"/>
          <path id="Path_64" data-name="Path 64" d="M1247.7,328.8a51.3,51.3,0,0,0,1.9,15.1" fill="none" stroke="#003188" stroke-linecap="round" stroke-linejoin="round" stroke-miterlimit="10" stroke-width="6"/>
          <path id="Path_65" data-name="Path 65" d="M1346,265.9a50,50,0,0,1,20.1,17.2" fill="none" stroke="#003188" stroke-linecap="round" stroke-linejoin="round" stroke-miterlimit="10" stroke-width="6"/>
          <path id="Path_66" data-name="Path 66" d="M1266.7,408.5c2.1,29.7,3.5,59.5,4.2,89.2" fill="none" stroke="#003188" stroke-linecap="round" stroke-linejoin="round" stroke-miterlimit="10" stroke-width="6"/>
          <path id="Path_67" data-name="Path 67" d="M1373.3,432.2c1.6,20.1,3.2,40.3,4.8,60.4" fill="none" stroke="#003188" stroke-linecap="round" stroke-linejoin="round" stroke-miterlimit="10" stroke-width="6"/>
          <path id="Path_68" data-name="Path 68" d="M1296.9,429.8a62.671,62.671,0,0,0,30.5,26.3,61.6,61.6,0,0,0,40.2,1.8c1.5-.5,3.2-1.1,3.9-2.5a6.421,6.421,0,0,0,.3-3.4c-.6-4.9-1.1-9.9-1.7-14.8-3.5,5.3-10,7.7-16.3,8.9a64.466,64.466,0,0,1-52.6-13.6" fill="#fff" stroke="#003188" stroke-linecap="round" stroke-linejoin="round" stroke-miterlimit="10" stroke-width="6"/>
          <path id="Path_69" data-name="Path 69" d="M1262.8,499.4c-31.5-7-65,2.1-92.5,18.9-27.6,16.8-50,40.6-70.9,65.3" fill="none" stroke="#003188" stroke-linecap="round" stroke-linejoin="round" stroke-miterlimit="10" stroke-width="6"/>
          <path id="Path_70" data-name="Path 70" d="M1275.9,503.4a130.436,130.436,0,0,0,70.2,7.4c7.4-1.3,14.8-3.3,20.8-7.8" fill="none" stroke="#003188" stroke-linecap="round" stroke-linejoin="round" stroke-miterlimit="10" stroke-width="6"/>
          <path id="Path_71" data-name="Path 71" d="M1281.6,517.2a110.364,110.364,0,0,0,80.7,4.1" fill="none" stroke="#003188" stroke-linecap="round" stroke-linejoin="round" stroke-miterlimit="10" stroke-width="6"/>
          <path id="Path_72" data-name="Path 72" d="M1342.2,476.5a16.447,16.447,0,0,1,1.7,10" fill="none" stroke="#003188" stroke-linecap="round" stroke-linejoin="round" stroke-miterlimit="10" stroke-width="6"/>
          <path id="Path_73" data-name="Path 73" d="M1387.4,493.6c50-13.9,105.6-6,149.9,21.1" fill="none" stroke="#003188" stroke-linecap="round" stroke-linejoin="round" stroke-miterlimit="10" stroke-width="6"/>
          <path id="Path_74" data-name="Path 74" d="M830.2,908.7c24.4-17.9,50.8-34.6,80.5-40.5,2.2-.4,4.8-.8,6.6.6,2.1,1.6,2.3,4.8,1.1,7.1s-3.3,4-5.4,5.6q-23.25,17.55-46.6,34.9" fill="#fff" stroke="#003188" stroke-linecap="round" stroke-linejoin="round" stroke-miterlimit="10" stroke-width="6"/>
          <path id="Path_75" data-name="Path 75" d="M829,909.606c-11.6,17.2-12,47.694,0,64.694s31.8,27.2,52.2,31.5c20.4,4.2,41.4,3.1,62.2,1.2" fill="#fff" stroke="#003188" stroke-linecap="round" stroke-linejoin="round" stroke-miterlimit="10" stroke-width="6"/>
          <path id="Path_76" data-name="Path 76" d="M901,987.6a158.734,158.734,0,0,0,60.9,5.7" fill="none" stroke="#003188" stroke-linecap="round" stroke-linejoin="round" stroke-miterlimit="10" stroke-width="6"/>
          <path id="Path_77" data-name="Path 77" d="M905.9,974.3a341.013,341.013,0,0,0,70.7,1.4" fill="none" stroke="#003188" stroke-linecap="round" stroke-linejoin="round" stroke-miterlimit="10" stroke-width="6"/>
          <path id="Path_78" data-name="Path 78" d="M905.9,959c16.1.7,32.3.6,48.4-.1,6.2-.3,12.8-.8,18-4.4a6.272,6.272,0,0,0,2.9-3.7c.8-3.9-4-6.2-7.9-7.2q-48.6-12-97.3-23.9" fill="#fff" stroke="#003188" stroke-linecap="round" stroke-linejoin="round" stroke-miterlimit="10" stroke-width="6"/>
          <path id="Path_79" data-name="Path 79" d="M1949.5,717.8a137.467,137.467,0,0,0-83.2,3.2c-4.5,1.6-9.1,3.6-12.5,7a5.481,5.481,0,0,0-2,3.4c-.2,2.9,3.2,4.6,6.1,5.3,6.2,1.4,12.5,1.5,18.8,1.7,16.2.4,32.4.8,48.5,1.2" fill="#fff" stroke="#003188" stroke-linecap="round" stroke-linejoin="round" stroke-miterlimit="10" stroke-width="6"/>
          <path id="Path_80" data-name="Path 80" d="M1918.6,742.1q-35.85,31.35-70.3,64c-4.7,4.5-9.7,9.4-10.7,15.8a6.361,6.361,0,0,0,.6,4.5c2.1,3.2,7,1.7,10.3-.1q31.35-16.95,61.6-35.8" fill="#fff" stroke="#003188" stroke-linecap="round" stroke-linejoin="round" stroke-miterlimit="10" stroke-width="6"/>
          <path id="Path_81" data-name="Path 81" d="M1846.7,847.7c23.9-13.7,47.1-28.6,69.6-44.5" fill="none" stroke="#003188" stroke-linecap="round" stroke-linejoin="round" stroke-miterlimit="10" stroke-width="6"/>
          <path id="Path_82" data-name="Path 82" d="M1868.2,854.1a285.974,285.974,0,0,0,55.7-35.2" fill="none" stroke="#003188" stroke-linecap="round" stroke-linejoin="round" stroke-miterlimit="10" stroke-width="6"/>
          <path id="Path_83" data-name="Path 83" d="M1887.6,857.9c17.7-9,35.5-18.1,50.9-30.8s28.2-29.2,32.8-48.5-.2-41.5-15.1-54.6" fill="none" stroke="#003188" stroke-linecap="round" stroke-linejoin="round" stroke-miterlimit="10" stroke-width="6"/>
          <path id="Path_84" data-name="Path 84" d="M1923.2,781.8c-.2.7-.5,1.4-.7,2.1" fill="none" stroke="#003188" stroke-linecap="round" stroke-linejoin="round" stroke-miterlimit="10" stroke-width="6"/>
          <path id="Path_85" data-name="Path 85" d="M1221.2,1177.8c8,79.6,19.2,159,33.5,237.7,1.1,6,2.4,12.4,6.5,17,4.1,4.5,12.2,6.1,16.3,1.6,6.5-7.1-4.9-18.7-14.1-15.9s-14,12.7-17.6,21.6c-52.3,130.4-68,272.9-116.4,404.8,47.5,16.3,112.3,31.8,159.9,48.1,43.1-150,81-282.1,139.6-426.7,7.3-17.9,12.3-25.4,16.1-44.4,7.2-35.5-1.8-64.5-8.7-100.1-9.7-50-27.4-135.3-38.8-184.9" fill="#fff" stroke="#003188" stroke-linecap="round" stroke-linejoin="round" stroke-miterlimit="10" stroke-width="6"/>
          <path id="Path_86" data-name="Path 86" d="M1392.6,1488.9a265.006,265.006,0,0,1-102,33.4" fill="none" stroke="#003188" stroke-linecap="round" stroke-linejoin="round" stroke-miterlimit="10" stroke-width="6"/>
          <path id="Path_87" data-name="Path 87" d="M1362.3,1518.9c-21.4,10.1-42.8,20.3-64.2,30.4" fill="none" stroke="#003188" stroke-linecap="round" stroke-linejoin="round" stroke-miterlimit="10" stroke-width="6"/>
          <path id="Path_88" data-name="Path 88" d="M1153.4,1830c14.3,16.6,38.1,20.4,59.7,24.4a520.99,520.99,0,0,1,59.1,14.8" fill="none" stroke="#003188" stroke-linecap="round" stroke-linejoin="round" stroke-miterlimit="10" stroke-width="6"/>
          <path id="Path_89" data-name="Path 89" d="M1233.4,1844.6c8.5,2.1,17,4.2,25.4,6.3" fill="none" stroke="#003188" stroke-linecap="round" stroke-linejoin="round" stroke-miterlimit="10" stroke-width="6"/>
          <path id="Path_90" data-name="Path 90" d="M1152.1,1855.6q-23.1,53.4-43.3,108c-3.4,9.1-6.6,19.4-2.5,28.2" fill="none" stroke="#003188" stroke-linecap="round" stroke-linejoin="round" stroke-miterlimit="10" stroke-width="6"/>
          <path id="Path_91" data-name="Path 91" d="M1248.5,1882.9c-2.9,4.9-5.9,9.9-6.7,15.5s1,12,5.8,15c3,1.8,6.7,2.1,10.2,2.3,40.5,2.7,81.8,5.8,119.4,21.1,7.5,3.1,15.1,6.8,20.2,13,10.7,12.9,8.1,32,4.8,48.4" fill="none" stroke="#003188" stroke-linecap="round" stroke-linejoin="round" stroke-miterlimit="10" stroke-width="6"/>
          <path id="Path_92" data-name="Path 92" d="M1111.9,1995.2h282.8" fill="none" stroke="#003188" stroke-linecap="round" stroke-linejoin="round" stroke-miterlimit="10" stroke-width="6"/>
          <path id="Path_93" data-name="Path 93" d="M1119.2,1972.2h275.6" fill="none" stroke="#003188" stroke-linecap="round" stroke-linejoin="round" stroke-miterlimit="10" stroke-width="6"/>
          <path id="Path_94" data-name="Path 94" d="M1258.9,1932.4c14.1-1.9,28.3-3.8,42.4-5.7" fill="none" stroke="#003188" stroke-linecap="round" stroke-linejoin="round" stroke-miterlimit="10" stroke-width="6"/>
          <path id="Path_95" data-name="Path 95" d="M1275.7,1941.4a344.54,344.54,0,0,1,45-7.9" fill="none" stroke="#003188" stroke-linecap="round" stroke-linejoin="round" stroke-miterlimit="10" stroke-width="6"/>
          <path id="Path_96" data-name="Path 96" d="M1142.3,1893c28.3,1.9,56.7,3.9,85,5.8" fill="none" stroke="#003188" stroke-linecap="round" stroke-linejoin="round" stroke-miterlimit="10" stroke-width="6"/>
          <path id="Path_97" data-name="Path 97" d="M1534,1115.6c108.6,73.9,192.9,167.6,289.2,265.6" fill="#fff" stroke="#003188" stroke-linecap="round" stroke-linejoin="round" stroke-miterlimit="10" stroke-width="6"/>
          <path id="Path_98" data-name="Path 98" d="M1810.6,1378.1c6.135,29.112-.8,25.273,0,78.236s2.721,78.629,3.2,133.618c.8,91.8,2,106.846,0,155.346" fill="#fff" stroke="#003188" stroke-linecap="round" stroke-linejoin="round" stroke-miterlimit="10" stroke-width="6"/>
          <path id="Path_99" data-name="Path 99" d="M1820.7,1753a261.673,261.673,0,0,1,61.8-13.6c7.7-.7,15.5-1.1,23.1-2.6,23.7-4.7,46.7-20.3,70.2-14.2" fill="none" stroke="#003188" stroke-linecap="round" stroke-linejoin="round" stroke-miterlimit="10" stroke-width="6"/>
          <path id="Path_101" data-name="Path 101" d="M1936.3,1662.4a202.315,202.315,0,0,1-88.8,53.4" fill="none" stroke="#003188" stroke-linecap="round" stroke-linejoin="round" stroke-miterlimit="10" stroke-width="6"/>
          <path id="Path_102" data-name="Path 102" d="M1923.4,1692.8a70.6,70.6,0,0,0-21.5,14.8" fill="none" stroke="#003188" stroke-linecap="round" stroke-linejoin="round" stroke-miterlimit="10" stroke-width="6"/>
          <path id="Path_103" data-name="Path 103" d="M1943.9,1362.6a152.05,152.05,0,0,1-50.1,61.9" fill="none" stroke="#003188" stroke-linecap="round" stroke-linejoin="round" stroke-miterlimit="10" stroke-width="6"/>
          <path id="Path_104" data-name="Path 104" d="M1943.6,1393.3c-10.4,14.3-20.8,28.7-31.2,43" fill="none" stroke="#003188" stroke-linecap="round" stroke-linejoin="round" stroke-miterlimit="10" stroke-width="6"/>
          <path id="Path_105" data-name="Path 105" d="M1823.9,1392.4a167.62,167.62,0,0,1,9.3,31" fill="none" stroke="#003188" stroke-linecap="round" stroke-linejoin="round" stroke-miterlimit="10" stroke-width="6"/>
          <path id="Path_106" data-name="Path 106" d="M1866,1745.3c-.7,23.1,1,59.4.3,82.6-.5,16.4-1,33,2.3,49.1.8,4.2,2.7,9,6.9,9.7" fill="none" stroke="#003188" stroke-linecap="round" stroke-linejoin="round" stroke-miterlimit="10" stroke-width="6"/>
          <path id="Path_107" data-name="Path 107" d="M1889.1,1884.1q127.95-47.85,256-95.8" fill="none" stroke="#003188" stroke-linecap="round" stroke-linejoin="round" stroke-miterlimit="10" stroke-width="6"/>
          <path id="Path_108" data-name="Path 108" d="M1882.2,1872q130.65-46.35,259-99.1" fill="none" stroke="#003188" stroke-linecap="round" stroke-linejoin="round" stroke-miterlimit="10" stroke-width="6"/>
          <path id="Path_109" data-name="Path 109" d="M1966.3,1727.3c-.2,10.6.4,22.7,8.7,29.3,6.5,5.1,15.5,4.9,23.6,4,35.4-4.1,69.2-18.4,104.7-21.2,7.1-.6,14.5-.6,21.2,2,16.3,6.5,22.5,25.9,26.6,42.9" fill="none" stroke="#003188" stroke-linecap="round" stroke-linejoin="round" stroke-miterlimit="10" stroke-width="6"/>
          <path id="Path_110" data-name="Path 110" d="M1997.1,1775.1c7.6-3.4,15.1-6.8,22.7-10.1" fill="none" stroke="#003188" stroke-linecap="round" stroke-linejoin="round" stroke-miterlimit="10" stroke-width="6"/>
          <path id="Path_111" data-name="Path 111" d="M2014.9,1778.4a142.733,142.733,0,0,1,33.6-17.9" fill="none" stroke="#003188" stroke-linecap="round" stroke-linejoin="round" stroke-miterlimit="10" stroke-width="6"/>
          <path id="Path_112" data-name="Path 112" d="M1875.6,1782.7a564.563,564.563,0,0,0,80.3-25.8" fill="none" stroke="#003188" stroke-linecap="round" stroke-linejoin="round" stroke-miterlimit="10" stroke-width="6"/>
          <path id="Path_113" data-name="Path 113" d="M769.2,1992.6a20.728,20.728,0,0,1,19.4,2.1" fill="none" stroke="#003188" stroke-linecap="round" stroke-linejoin="round" stroke-miterlimit="10" stroke-width="6"/>
          <path id="Path_114" data-name="Path 114" d="M820,1992.3l187.6,1.8" fill="none" stroke="#003188" stroke-linecap="round" stroke-linejoin="round" stroke-miterlimit="10" stroke-width="6"/>
          <path id="Path_115" data-name="Path 115" d="M1022.2,1994.6a23.021,23.021,0,0,1,18.4-3.2c2.4.6,4.6,1.7,7.1,1.8,2.7.1,5.3-1,8-1.6,14.6-3.4,30,6.4,44.6,2.8" fill="none" stroke="#003188" stroke-linecap="round" stroke-linejoin="round" stroke-miterlimit="10" stroke-width="6"/>
          <path id="Path_116" data-name="Path 116" d="M817.3,2019.7a13.163,13.163,0,0,1,15.7-1.6" fill="none" stroke="#003188" stroke-linecap="round" stroke-linejoin="round" stroke-miterlimit="10" stroke-width="6"/>
          <path id="Path_117" data-name="Path 117" d="M1028.6,2047.1a28.64,28.64,0,0,1,26.2-4.7c2.9,1,5.7,2.4,8.7,3,4,.8,8.1.1,12.2-.2a64.684,64.684,0,0,1,21,2" fill="none" stroke="#003188" stroke-linecap="round" stroke-linejoin="round" stroke-miterlimit="10" stroke-width="6"/>
          <path id="Path_118" data-name="Path 118" d="M1130.1,2056.5a16.736,16.736,0,0,1,10.6-.5" fill="none" stroke="#003188" stroke-linecap="round" stroke-linejoin="round" stroke-miterlimit="10" stroke-width="6"/>
          <path id="Path_119" data-name="Path 119" d="M1416.2,1995.6c8.3.1,16.7.1,25,.2l39.2.3,33.2.3c44.1.3,88.3.7,132.1-4.5,6.8-.8,13.7-1.7,20.4-.9,6.7.9,13.1,3.5,19.8,4.9,8.3,1.8,16.8,1.6,25.3,1.5q92.1-1.05,184,5.6" fill="none" stroke="#003188" stroke-linecap="round" stroke-linejoin="round" stroke-miterlimit="10" stroke-width="6"/>
          <path id="Path_120" data-name="Path 120" d="M1471.9,2048.4a61.667,61.667,0,0,1,35.1,0c7.6,2.2,14.8,6,22.7,6.7,7.1.7,14.1-1.2,21.2-2a78.57,78.57,0,0,1,22.7.6" fill="none" stroke="#003188" stroke-linecap="round" stroke-linejoin="round" stroke-miterlimit="10" stroke-width="6"/>
          <path id="Path_121" data-name="Path 121" d="M1598.3,2046.8h10.6" fill="none" stroke="#003188" stroke-linecap="round" stroke-linejoin="round" stroke-miterlimit="10" stroke-width="6"/>
          <path id="Path_122" data-name="Path 122" d="M1927.6,2004.6a18.556,18.556,0,0,1,17.6-2.7c2.6,1,4.9,2.5,7.6,3.1,4.7,1.1,9.4-.9,14.1-2.1a44.826,44.826,0,0,1,27.8,1.9" fill="none" stroke="#003188" stroke-linecap="round" stroke-linejoin="round" stroke-miterlimit="10" stroke-width="6"/>
          <path id="Path_123" data-name="Path 123" d="M2038.5,2005.7c8-7.9,21.1-4.9,32.2-3.2,10.3,1.6,20.8,1.5,31.3,1.5,10,0,20.1-.1,30.1-.1,11.7,0,23.4-.1,35.1-.1,11.8,0,23.5-.1,35.2-1,9.7-.8,20.1-2,28.6,2.7" fill="none" stroke="#003188" stroke-linecap="round" stroke-linejoin="round" stroke-miterlimit="10" stroke-width="6"/>
          <path id="Path_124" data-name="Path 124" d="M2266.4,2005.1a49.079,49.079,0,0,1,19.6-4.7c6.2-.2,12.5.7,18.6,1.6,12,1.8,23.9,3.5,35.9,5.3" fill="none" stroke="#003188" stroke-linecap="round" stroke-linejoin="round" stroke-miterlimit="10" stroke-width="6"/>
          <path id="Path_125" data-name="Path 125" d="M2158.6,2058.3c5.9-4.4,14-4.1,21.1-2.6,7.2,1.5,14.3,4.1,21.6,3.5,8-.6,17.5-4.4,23.1,1.4" fill="none" stroke="#003188" stroke-linecap="round" stroke-linejoin="round" stroke-miterlimit="10" stroke-width="6"/>
          <path id="Path_126" data-name="Path 126" d="M1837.9,2039.7a32.984,32.984,0,0,1,24.3,1.6" fill="none" stroke="#003188" stroke-linecap="round" stroke-linejoin="round" stroke-miterlimit="10" stroke-width="6"/>
          <path id="Path_127" data-name="Path 127" d="M1988,2059.4c10.1-2.1,20.5-2.2,30.9-2.3,3.1,0,6.2-.1,9.3-.1,11.5-.1,23.1-.2,34.3,2.1" fill="none" stroke="#003188" stroke-linecap="round" stroke-linejoin="round" stroke-miterlimit="10" stroke-width="6"/>
          <path id="Path_128" data-name="Path 128" d="M2363.7,2027.1c3.4.5,6.8.9,10.2,1.4" fill="none" stroke="#003188" stroke-linecap="round" stroke-linejoin="round" stroke-miterlimit="10" stroke-width="6"/>
          <path id="Path_129" data-name="Path 129" d="M1027.2,565.1a3.276,3.276,0,0,0-1,4.8c1.1-.5,2.5-1.4,2.3-2.7-.1-1.3-2.7-.8-2,.2" fill="none" stroke="#003188" stroke-linecap="round" stroke-linejoin="round" stroke-miterlimit="10" stroke-width="6"/>
          <path id="Path_130" data-name="Path 130" d="M1510.2,394.5c-1,.5.1,2.3,1.2,2,1.1-.2,1.7-1.4,2.2-2.4" fill="none" stroke="#003188" stroke-linecap="round" stroke-linejoin="round" stroke-miterlimit="10" stroke-width="6"/>
          <path id="Path_131" data-name="Path 131" d="M1153.9,1296.8c3.1.8,1.6,6.8-1.5,6s-1.6-6.8,1.5-6" fill="none" stroke="#003188" stroke-linecap="round" stroke-linejoin="round" stroke-miterlimit="10" stroke-width="6"/>
          <path id="Path_132" data-name="Path 132" d="M1014.8,1700.4c-1.7.8,1.4,3.6,2,1.7-.7-.8-1.6,1.3-.5,1.7,1.1.3,2-.7,2.7-1.6,0-1.1-2.2-1.1-2.2.1" fill="none" stroke="#003188" stroke-linecap="round" stroke-linejoin="round" stroke-miterlimit="10" stroke-width="6"/>
          <path id="Path_133" data-name="Path 133" d="M1910.8,1131c-.5-1.2-2,1.3-.7,1.2a3.134,3.134,0,0,0,1.1-3.5" fill="none" stroke="#003188" stroke-linecap="round" stroke-linejoin="round" stroke-miterlimit="10" stroke-width="6"/>
          <path id="Path_134" data-name="Path 134" d="M2070.3,1576.5a1.227,1.227,0,0,1-2.2-.4c-.1-1,1.6-1.6,2.1-.7" fill="none" stroke="#003188" stroke-linecap="round" stroke-linejoin="round" stroke-miterlimit="10" stroke-width="6"/>
          <path id="Path_141" data-name="Path 141" d="M-5.164,1.564C1.586-10.186,27,0,27,0l1.012,8.339L20.856,47.12,0,47S-11.914,13.314-5.164,1.564Z" transform="translate(831.825 915.31) rotate(-31)" fill="#fff"/>
        </g>
      </g>
      <g id="color_outline">
        <g id="Group_14" data-name="Group 14">
          <g id="Group_12" data-name="Group 12">
            <path id="Path_135" data-name="Path 135" d="M1137.6,851.5l-136.1,21.9a11.886,11.886,0,0,1-13.6-9.9l-15.3-95.1a11.886,11.886,0,0,1,9.9-13.6l136.1-21.9a11.886,11.886,0,0,1,13.6,9.9l15.3,95.1A11.886,11.886,0,0,1,1137.6,851.5Z" fill="none" stroke="#ff8500" stroke-linecap="round" stroke-linejoin="round" stroke-miterlimit="10" stroke-width="6"/>
            <g id="Group_11" data-name="Group 11">
              <line id="Line_1" data-name="Line 1" y1="25.2" x2="156.8" transform="translate(977 755.2)" fill="none" stroke="#ff8500" stroke-linecap="round" stroke-linejoin="round" stroke-miterlimit="10" stroke-width="6"/>
              <line id="Line_2" data-name="Line 2" y1="7.2" x2="44.8" transform="translate(1091.4 778.6)" fill="none" stroke="#ff8500" stroke-linecap="round" stroke-linejoin="round" stroke-miterlimit="10" stroke-width="6"/>
              <path id="Path_136" data-name="Path 136" d="M1091.4,785.8" fill="none" stroke="#ff8500" stroke-linecap="round" stroke-linejoin="round" stroke-miterlimit="10" stroke-width="6"/>
              <path id="Path_137" data-name="Path 137" d="M1036.3,794.7" fill="none" stroke="#ff8500" stroke-linecap="round" stroke-linejoin="round" stroke-miterlimit="10" stroke-width="6"/>
              <line id="Line_3" data-name="Line 3" y1="9" x2="55.6" transform="translate(980.7 794.7)" fill="none" stroke="#ff8500" stroke-linecap="round" stroke-linejoin="round" stroke-miterlimit="10" stroke-width="6"/>
              <line id="Line_4" data-name="Line 4" y1="7.5" x2="46.2" transform="translate(1093.1 801.1)" fill="none" stroke="#ff8500" stroke-linecap="round" stroke-linejoin="round" stroke-miterlimit="10" stroke-width="6"/>
              <line id="Line_5" data-name="Line 5" y1="9.3" x2="57.7" transform="translate(982.3 817.1)" fill="none" stroke="#ff8500" stroke-linecap="round" stroke-linejoin="round" stroke-miterlimit="10" stroke-width="6"/>
              <line id="Line_6" data-name="Line 6" y1="25.3" x2="157" transform="translate(986.3 825.9)" fill="none" stroke="#ff8500" stroke-linecap="round" stroke-linejoin="round" stroke-miterlimit="10" stroke-width="6"/>
            </g>
            <line id="Line_7" data-name="Line 7" x1="19.1" y1="118.6" transform="translate(1028.7 747.4)" fill="none" stroke="#ff8500" stroke-linecap="round" stroke-linejoin="round" stroke-miterlimit="10" stroke-width="6"/>
            <line id="Line_8" data-name="Line 8" x1="19.1" y1="118.6" transform="translate(1081.9 738.8)" fill="none" stroke="#ff8500" stroke-linecap="round" stroke-linejoin="round" stroke-miterlimit="10" stroke-width="6"/>
          </g>
          <g id="Group_13" data-name="Group 13">
            <path id="Path_138" data-name="Path 138" d="M1566.9,953.7a62.422,62.422,0,1,1,6.2,27.2" fill="none" stroke="#ff8500" stroke-linecap="round" stroke-linejoin="round" stroke-miterlimit="10" stroke-width="6"/>
            <path id="Path_139" data-name="Path 139" d="M1761.9,887.8a62.445,62.445,0,1,1-34.9-10.7" fill="none" stroke="#ff8500" stroke-linecap="round" stroke-linejoin="round" stroke-miterlimit="10" stroke-width="6"/>
          </g>
        </g>
      </g>
    </g>
  </g>
</svg>
